<?xml version="1.0" encoding="UTF-8"?>
<svg width="32px" height="32px" viewBox="0 0 32 32" version="1.1" xmlns="http://www.w3.org/2000/svg" xmlns:xlink="http://www.w3.org/1999/xlink">
    <!-- Generator: Sketch 48.2 (47327) - http://www.bohemiancoding.com/sketch -->
    <title>lips-icon</title>
    <desc>Created with Sketch.</desc>
    <defs></defs>
    <g id="Design-Desktop" stroke="none" stroke-width="1" fill="none" fill-rule="evenodd">
        <g id="lips-icon" fill="#D8373A" fill-rule="nonzero">
            <path d="M28.8903682,13.8128181 C28.8507551,13.7989 28.800971,13.78177 28.7126444,13.7582162 C28.77367,13.7726696 28.8304132,13.7930115 28.8903682,13.8128181 Z M29.8234183,14.9091386 C29.9047859,14.4444872 31.5353485,14.197708 32,13.9455757 C31.4154385,13.9086391 30.8576426,14.2448155 30.3389245,14.2410683 C29.8025411,14.2394624 29.3748263,13.9739472 28.8898329,13.8122828 C29.0316908,13.8684906 28.9160632,13.9086391 29.0488208,14.127582 C27.7453342,14.8277711 27.5660045,14.6559357 26.2036335,14.3395659 C26.0655228,16.0268717 29.2110205,16.9235205 28.8662791,18.7157476 C27.4032694,18.3549468 27.7571111,19.6991172 26.8861573,19.5711774 C26.6302778,19.1075966 26.007709,18.7387661 26.3181904,18.1654461 C26.9461123,18.2939212 27.1832558,19.5749246 27.8325902,18.7698142 C28.3486317,18.1279742 27.5579748,17.3983429 27.2255455,16.9170968 C26.7924775,16.2897102 26.6570434,15.6944424 25.8883343,15.2661922 C24.9526076,14.7394445 24.8289503,15.351307 24.2674073,16.1419639 C24.1903222,16.027407 23.9692381,15.9053557 23.8942943,15.7040781 C24.0725534,16.0964623 23.8300567,16.5215006 23.9296249,16.8914018 C24.0382934,17.300916 24.1972813,17.3421351 24.5018742,17.6767056 C25.0077448,18.2350368 25.5087975,18.7034354 25.7448705,19.450732 C26.0799762,20.5031569 25.5136154,20.5979073 24.9638492,19.8746997 C24.4895621,19.252131 24.3728639,18.3356756 24.0254459,17.7131068 C23.8107855,17.7104303 23.4842447,17.8324816 23.3220449,17.9604213 C23.6239613,18.7922973 25.3647984,20.0042454 25.2331115,20.8184561 C24.9638492,20.683022 24.9172769,20.7472595 24.7529359,20.465685 C23.6721395,20.4223247 23.6394854,18.44595 22.9708798,17.9711276 C22.8300925,18.567466 22.3060213,18.1938177 22.0870784,18.8270927 C22.0474653,18.9400437 22.2899619,19.8746997 22.2755085,20.1461033 C21.3719006,20.42286 20.9800516,19.4930217 21.0266238,18.7398367 C20.9051078,18.7366248 20.7964394,18.7307364 20.6765293,18.7419779 C20.6411987,20.0224461 24.0099218,22.8751277 22.9526791,23.6946916 L22.7621078,23.5994059 C22.7439072,23.5929821 22.7246359,23.5870937 22.7112531,23.5812053 C22.3980951,23.2428876 22.1368625,22.8574624 21.8183514,22.5389513 C21.6176091,22.000962 21.1021029,21.7359822 20.8515766,21.1642682 C20.6085446,20.604331 20.6283512,20.0213754 20.0850087,19.5845602 C19.6578291,19.243566 19.0095654,18.9866159 18.491918,19.3939889 C17.711432,20.0090632 18.5042301,20.1461033 18.9619225,20.6369851 C19.2911399,20.9897562 19.8532183,21.5882359 20.0914325,21.9977501 C20.3376763,22.4238591 20.6492284,23.4885961 19.6979776,23.0341156 C18.7531506,22.5817763 18.9940413,20.4148303 17.7130379,20.3687934 C17.6595066,20.6380557 17.5353141,20.8939352 17.5979457,21.1963869 C17.3848912,21.143391 17.0658448,21.2772192 16.852255,21.2247585 C17.0133841,22.000962 18.3077704,22.7584295 18.1632359,23.5849524 L18.1568122,23.5849524 C18.1412881,23.5233915 18.1262993,23.4602246 18.0995337,23.3868867 C17.935728,22.9350828 17.3527724,22.6058654 17.0353319,22.2621946 C16.7687462,21.9774082 16.2543106,21.01331 15.8046479,21.2247585 C15.4588359,21.3901701 15.5808872,22.4516953 15.6119353,22.7434408 C15.6916969,23.4730721 16.9850125,25.1850023 15.2286514,24.826878 C14.8592856,24.0945702 14.3860691,23.6031531 13.9679899,22.9586365 C13.7270991,22.5919473 13.7270991,22.5512635 13.6837388,22.1867155 C13.6542966,21.9506426 14.4396004,21.1669447 13.4048408,21.412118 C13.5038737,21.6594325 13.4465952,21.9870439 13.4813906,22.2482765 C12.5531583,22.0817942 12.8325915,22.9463243 13.670356,22.7568236 C13.7169282,22.9763018 13.7667123,23.389028 13.7720654,23.5806699 C13.5970181,23.6293834 13.2999195,23.6325953 13.1286195,23.5838818 C13.035475,23.3081957 12.8523981,23.2519879 12.811179,22.9447184 C12.2528478,22.988614 11.7678544,21.9640254 11.9509314,21.5122215 C11.8203151,21.4533371 11.5392759,21.4073002 11.4054477,21.4142592 C11.3310392,21.9768729 11.8358392,22.1658383 11.7576835,22.7230989 C11.448808,22.841403 11.1276204,22.9425771 10.8203509,23.0271565 L10.7229239,23.0271565 C10.6115789,22.5721407 10.7116824,22.052352 10.4338551,21.7156403 C10.1865406,21.412118 9.54309463,21.1235844 9.21976573,21.4233595 C8.86110618,21.7536475 9.09343192,22.452766 9.33539328,22.7884071 C8.74066081,22.6738501 8.37718345,22.632631 7.76103847,22.2530943 C7.5105121,22.4875613 7.36223047,22.5416279 7.36223047,22.9222352 C6.47414661,22.1074892 3.73816312,24.1968149 3.45819455,25.2230095 C2.71196857,27.9429336 6.66364733,26.7127849 4.98972434,25.4151867 C5.48114145,25.3723617 5.60212213,24.9371525 5.58070962,24.4719657 C7.05924345,24.0346152 5.9490048,27.2266851 7.84133539,26.6448001 C8.01370609,25.5506209 7.12080442,24.8429374 7.20270727,23.9023929 C8.56936073,23.5490865 7.27711574,27.1795776 9.27757951,26.8632077 C9.30862765,28.1110218 10.7700315,28.3278234 10.166734,27.2459564 C10.2630903,27.2497036 10.348205,27.2646923 10.4252901,27.2909226 C10.556977,27.4306393 10.7234593,27.5446609 10.9033243,27.6260284 C11.1736573,27.887261 11.4252543,28.1447465 12.0569233,27.8813726 C12.0167749,27.7619979 11.9675261,27.6560059 11.9214892,27.5446609 C12.047823,27.3043055 11.8941883,26.9119212 11.4348899,26.6035811 C11.4252543,26.5821686 11.4129421,26.5612914 11.3963474,26.5388082 C11.9493255,25.7181738 12.2078815,27.2861048 12.2662306,27.6934778 C12.4145122,27.7357675 12.6623621,27.7341616 12.811179,27.6934778 C12.8995056,27.325718 12.8010081,26.9670584 12.5718942,26.673707 C12.9889028,26.5768154 14.5520161,27.9820114 14.2693709,26.5746742 C14.6141124,26.5409495 14.9567125,26.7026139 15.2002798,26.8332302 C15.1494251,26.6763836 15.1799379,26.4451285 15.1258713,26.2872112 C15.5311031,26.2465275 15.8474729,26.4258572 15.8844095,26.8187768 C15.8453317,26.6517592 15.914387,26.4520876 15.8977923,26.2872112 C16.0830106,26.2331446 16.4507704,26.2310034 16.6365239,26.2909584 C16.6413418,26.4756413 16.7890881,26.6458708 16.7794524,26.8332302 C19.59948,27.0007831 17.5958044,26.2770403 17.7965467,24.8461493 C17.8201004,24.6668195 17.8720258,24.5319207 17.9293042,24.4168285 C18.0256605,24.4061222 18.1279053,24.3954159 18.2365738,24.3761447 C18.2365738,26.5463026 20.1679822,25.6368062 19.6626469,23.9596714 C19.8933667,23.8590326 20.128369,23.8590326 20.3580182,23.9987492 C20.3681892,24.5099729 20.6005149,24.9510706 21.1272626,24.9200224 C21.1668758,24.9007512 21.4677216,24.706968 21.5972672,24.6347008 C21.7102182,24.0030317 21.4061606,23.6368778 21.2471727,23.1149478 C21.6245682,22.9923612 21.9607446,23.6095768 22.2888913,24.0228383 C22.3220807,24.1143768 22.3643704,24.2010974 22.4039836,24.2546287 C22.4243254,24.2433871 22.4473439,24.2353574 22.4692917,24.2257218 C22.6903759,24.429676 22.9061069,24.453765 23.1357561,24.0190911 C23.2583427,23.9976786 23.3836059,23.9794779 23.5142222,23.9655598 C23.5538354,23.2236163 23.0335114,21.4817086 24.1812219,21.5116861 C24.2144113,21.9029998 24.1635566,23.4586186 24.9879382,22.4795316 C25.3787165,22.0148801 24.5034802,20.8061439 25.7116811,21.1300081 C25.7411233,21.4420955 25.8594274,21.6647856 25.9300887,21.9602782 C26.9889373,22.0052445 28.0713397,21.6985103 28.6393065,20.7092523 C28.8919741,20.2676193 28.775276,19.721065 29.0434677,19.2751495 C29.1350061,19.1263325 29.4711825,19.1274031 29.6398061,18.9154193 C29.8560724,18.6440157 29.9866887,18.5026931 30.0123837,18.1681227 C29.3598375,18.315869 29.0638095,17.7719912 29.2559868,17.2682619 C29.4192572,16.8416177 30.1504944,17.258091 30.0155956,16.4535159 C29.8020058,16.4288915 29.5723567,16.2335024 29.3609081,16.2190489 C29.4187219,16.1494583 29.4904538,16.0311542 29.5562973,15.9567457 C29.2099499,15.7961519 28.8994685,15.5359899 28.9888658,15.1093456 C30.3153708,14.7105376 29.8919384,16.9968584 30.7773457,16.5300656 C30.6970488,16.3089815 29.8341246,14.8518602 29.8234183,14.9091386 Z M10.4247547,23.7771297 C10.4199369,23.779271 10.4145838,23.7819475 10.4076247,23.7840888 C10.3904947,23.5688931 10.3701528,23.4056227 10.3150156,23.2755417 C10.4108366,23.363333 10.4563382,23.5110793 10.4247547,23.7771297 Z M0.133367032,21.5009799 C-0.352161636,21.9940029 0.611401322,21.9217357 1.05196372,22.0154154 C0.974878682,21.5047271 0.735058568,20.8859055 0.133367032,21.5009799 Z M1.05196372,22.0159508 C1.07444685,22.1401433 1.08408248,22.2568415 1.08568842,22.3478447 C1.16491471,22.3521272 1.24681756,22.3510565 1.32604385,22.3521272 C1.32069072,22.2461352 1.29553102,22.1572733 1.24467631,22.0957124 C1.21148692,22.0593111 1.14243157,22.0346867 1.05196372,22.0159508 Z M3.91481633,22.2621946 C4.40837469,21.9420776 4.72742109,22.1422846 5.180831,21.5737824 C5.59944557,21.0497112 5.72792063,20.3393512 6.04429047,19.7804847 C6.46236973,19.043359 6.30498778,19.3174392 7.18075945,18.8988246 C7.19467758,18.5326707 7.17915351,18.151528 7.20217196,17.7875153 C7.42057956,17.8292697 7.78352161,17.6868765 7.94358012,17.7034712 C7.78352161,17.4235026 8.26690903,16.1146629 8.59505574,15.92998 C9.39106581,15.4781761 9.32896953,16.3657246 10.0404002,16.2351083 C10.0741249,15.5520492 10.1351505,14.7737045 9.93922607,14.1398942 C9.83912259,13.8283422 9.35787642,12.7662817 9.11323849,12.6929438 C8.90607245,12.097676 8.29153341,11.5200736 8.24977902,10.8851926 C9.32415172,10.5393806 10.4707916,13.0350087 10.7438011,13.6640012 C10.8487224,13.9027506 11.3128386,15.6676768 11.8551104,14.7185673 C12.318156,13.9134569 10.9916509,13.910245 11.1195907,13.1993497 C12.3427803,12.7084679 12.2485653,14.3042352 13.2881427,14.0290845 C13.5311747,13.0499974 12.6532617,12.0227323 12.1623799,11.3493088 C11.7812373,10.8300554 11.9600317,10.6266366 11.7753488,10.0329747 C11.6431266,9.61703673 11.2025642,9.5276395 11.3128386,8.99821519 C11.5510528,8.88151701 11.6029781,8.68184535 11.761966,8.50412152 C11.4605849,8.28357266 11.2191589,7.97202064 11.0023572,7.64869174 C10.1512099,8.05178224 10.3749707,8.35851645 10.053783,9.07690616 C9.77488506,9.70696928 9.84982884,9.27443657 9.47510991,9.64433768 C9.25937887,9.85685685 9.00617594,9.9976441 8.89215432,10.3033077 C7.17433569,10.4483774 8.67267609,12.3792505 9.11645037,12.999678 C8.66732297,14.3748965 6.62724606,11.544698 5.84033631,12.5189672 C6.26323339,13.035544 7.24820885,13.5858455 7.36490703,14.1281173 C6.90346744,14.163448 6.5619379,14.2726518 6.11602238,14.1200876 C5.6636831,13.9621704 5.46454676,13.3160479 5.28200511,13.2534163 C5.20063757,13.2266506 5.11124034,13.2191563 5.01648998,13.2234388 C5.40673298,12.9001099 5.75896877,12.3535555 5.84943663,11.9477885 C5.91528009,11.6597902 5.9490048,11.3948104 5.97309387,11.1437487 C5.60158682,10.9505008 5.07698032,10.8985755 4.70440264,10.5955884 C4.57432164,10.4885259 3.73816312,12.5553684 3.82274254,12.8663852 C3.93141103,13.2812525 4.1193058,13.4611176 4.33610747,13.4932364 C4.01277856,13.728774 3.77135251,14.0815451 3.83023692,14.413439 C3.10649407,14.45787 2.37900404,14.2528452 2.52728567,15.0959628 C2.52996223,15.1157693 3.07383999,15.8577128 3.10221157,15.8823372 C3.23657507,15.9952882 3.44159986,16.1441052 3.56150991,16.2447439 C3.64180683,16.3121934 3.85753787,16.1724767 3.94158197,16.2645505 C4.5347085,16.902108 3.90732195,17.1579875 4.1359005,17.8651357 C4.25313399,18.2350368 5.28735823,19.3126213 4.04917983,19.096355 C3.99404262,18.5888785 3.47585987,18.5813841 3.28261197,18.151528 C3.18411442,17.9293732 3.33186074,17.6237096 3.2713704,17.3908486 C3.07169874,16.6553288 3.16430785,16.320223 2.22751053,16.7415142 C2.37150966,17.353912 3.05992186,18.3458465 3.08026375,18.9175605 C3.13754221,20.380035 1.69594496,19.1011728 1.18472128,19.8736291 C0.790195782,20.4651497 2.63702479,19.9309076 2.95821244,20.1610921 C3.66482527,20.6733864 3.18143786,20.9726262 2.89504553,21.4297833 C2.73070452,21.6883393 2.42397031,22.0309395 2.20395677,22.3419562 C1.91381725,22.3548037 1.61993055,22.356945 1.32550854,22.3526625 C1.3699395,22.9837962 0.767712646,24.3103012 0.99575588,25.0190553 C1.46629579,25.1507422 2.42397031,25.4558705 2.88487459,25.1304004 C3.28742978,24.8397255 3.221051,24.1737965 3.18946755,23.5817406 C3.66643121,23.1037063 3.34310231,22.632631 3.91481633,22.2621946 Z M6.61332793,10.7037216 C7.9344798,10.6962272 7.45965739,9.53245732 8.13843396,9.05388772 C8.39645471,8.87241669 8.76582051,9.05067584 9.02384126,8.91524171 C9.21923042,8.81299698 9.26847919,8.5367756 9.43496146,8.38207021 C9.82520445,8.0250166 10.2593431,7.68188113 10.4070894,7.18243433 C8.60683262,7.2611253 7.97409295,6.95974422 6.79747551,8.38099958 C5.97255856,9.37935787 6.06516767,10.146461 5.97255856,11.1437487 C5.99718295,11.1549903 6.01859546,11.1667672 6.04054328,11.1796147 L6.61332793,10.7037216 Z M12.9187769,10.9157055 C13.5033384,11.9895429 13.8421914,12.0543157 13.8850164,13.365832 C14.5263211,13.4718239 15.7666407,12.7207801 15.7864473,12.0387916 L15.5011256,12.0387916 C15.6617194,11.9772307 15.7762763,11.9151344 15.9614946,11.9311938 C15.9968252,11.7829121 16.0599921,11.7010093 16.0996053,11.5768167 C16.4491645,11.8053953 16.6986202,12.1474601 16.9507525,12.5045137 C19.3864256,12.5955169 17.1520301,10.9280177 15.8967217,11.0987824 C15.9497177,11.5987646 15.5889169,11.8027187 15.1140945,11.6624668 C14.4727898,11.4729661 14.9941844,11.2251162 15.022556,11.0661284 C15.0932173,10.7080041 15.4251112,10.598265 15.4063752,10.0335101 C15.3903159,9.59187703 15.3945984,9.17968621 14.9433297,8.9901855 C15.1060648,10.1368254 13.7924073,8.91845359 13.2651242,8.98911487 C13.7442291,8.87723451 15.2746883,8.0919307 14.1874681,7.42707225 C13.6066538,7.07376584 12.0515702,7.83712182 12.0590646,8.50519214 C12.0654883,8.97573205 12.4953445,9.36436911 12.6323845,9.82152621 C12.768354,10.2669064 12.698228,10.5051206 12.9187769,10.9157055 Z M13.9021464,6.18300541 C14.2244047,6.33503424 14.4968789,6.88051793 14.8143193,7.08768397 C14.9947197,7.47899759 14.9476122,7.46400883 15.3988809,7.56464763 C15.3603383,7.95274938 15.4711481,8.24235358 15.767176,8.3986649 C16.2917825,7.19528183 14.856609,7.3157272 14.7393755,6.22690106 C15.4304643,6.07594286 16.1681253,6.46243867 16.4641532,7.07162459 C16.5348145,7.20919996 16.5508739,8.86545763 17.2060967,7.96024376 C17.6407707,7.36069347 16.0562449,6.91531326 17.2135911,6.39873645 C18.0866862,6.00688752 18.12737,6.95010859 18.6396643,7.05717114 C18.5936274,6.83929885 18.7108609,6.54273558 18.6637533,6.32165142 C19.686736,5.99457532 20.4779283,6.42229021 20.6385221,7.2820025 C20.8735244,8.51643371 20.1620937,8.50679808 21.2316486,9.43181852 C21.6363451,9.78084244 22.2589138,10.1105951 22.1015319,10.7979367 C21.9634212,11.406052 21.3901012,11.6057236 20.9045725,11.4499476 C20.6540462,11.3685801 20.0009646,10.7336991 20.0828675,10.4141174 C20.1781531,10.0506401 20.8553238,9.97194909 21.2193364,9.92270032 C21.136363,9.39809382 20.2616619,9.09831867 19.7782745,9.00838613 C18.9158857,8.84993356 18.776169,8.83333886 18.3682607,9.55386983 C17.745692,10.6491197 18.4833529,12.0066729 19.8858724,11.8316256 C20.0962503,11.1940681 22.2792557,11.6758496 22.9409023,11.6421249 C23.0276229,12.2582699 23.6689276,12.3257193 24.290961,12.6115763 C25.0660939,12.9595296 25.4675785,12.9648827 25.6142542,11.847685 C25.2122343,11.5425567 24.7358059,11.3096957 24.8717754,10.7165691 C25.6383432,10.6089713 25.0414695,9.87612811 24.8476863,9.45162509 C25.0660939,9.34135067 25.4349244,9.30548471 25.7100751,9.37882256 C25.8835165,9.95214252 25.9745196,10.7840185 26.6672143,10.8846573 C26.685415,10.7668885 26.685415,10.6421607 26.6945153,10.5270684 C27.3219018,9.76745962 27.9653478,10.2626239 28.1270122,8.99500331 C28.9604942,8.89543514 29.0986049,10.5254625 28.5911284,10.8958989 C28.1098822,11.2513466 26.6441959,10.7647473 26.6886268,11.6405189 C26.8802688,11.7411577 29.1847902,11.6148239 29.4567291,11.4692189 C30.1852898,11.0768346 29.5215019,10.7074688 29.6574714,10.2026689 C29.7961174,9.68127426 30.1938548,9.54637545 30.5883803,9.37882256 C29.0932517,9.34188598 28.4594414,8.99767988 27.6104354,7.83658651 C26.9327295,6.91638389 26.2138044,6.24296044 25.0762648,6.01919971 C24.3386039,5.87412995 23.6796339,6.09200224 22.9526791,6.02027034 C22.4532323,5.97155688 22.1186619,5.57917263 21.7375192,5.4271438 C20.2552382,4.83562321 20.7065068,6.22957762 19.2445677,6.0020697 C19.2017427,5.79329773 19.0609554,5.78045022 18.9608519,5.65839891 C18.9747701,5.4351735 18.9394394,5.17875869 18.931945,4.9822989 C17.4266456,4.90307262 16.9973247,4.78530381 15.7864473,4 C15.1483545,4.31744046 14.5937705,5.13486304 13.9797667,5.35808846 C13.5151153,5.52724729 12.0322989,5.19910057 12.4605491,6.19264104 C12.94126,6.25420201 13.4755021,5.98226313 13.9021464,6.18300541 Z" id="Shape"></path>
        </g>
    </g>
</svg>