<?xml version="1.0" encoding="UTF-8"?>
<svg width="292px" height="292px" viewBox="0 0 292 292" version="1.1" xmlns="http://www.w3.org/2000/svg" xmlns:xlink="http://www.w3.org/1999/xlink">
    <!-- Generator: Sketch 48.1 (47250) - http://www.bohemiancoding.com/sketch -->
    <title>lips-logo-glyph</title>
    <desc>Created with Sketch.</desc>
    <defs></defs>
    <g id="Page-1" stroke="none" stroke-width="1" fill="none" fill-rule="evenodd">
        <g id="lips-logo-glyph">
            <polyline id="Fill-4" fill="#1A1919" points="0.449 289.356 16.765 278.913 16.765 100.318 2.929 90.658 33.663 90.658 21.038 283.917 60.676 283.917 75.422 215.16 75.422 289.356 0.449 289.356"></polyline>
            <polyline id="Fill-5" fill="#1A1919" points="76.979 289.356 99.61 279.963 95.337 124.46 74.36 114.937 134.572 114.937 112.624 124.46 104.854 279.963 127.321 289.356 76.979 289.356"></polyline>
            <path d="M155.727,204.671 L157.56,204.671 C169.219,204.671 178.512,199.205 185.432,188.268 C192.351,177.333 195.811,162.45 195.811,143.616 C195.811,127.04 193.225,114.849 188.047,107.037 C182.87,99.225 174.755,95.319 163.702,95.319 L163.18,95.319 L155.727,204.671 Z M129.773,289.356 L146.088,278.913 L146.088,100.318 L132.253,90.658 L161.875,90.658 C176.048,90.658 187.416,95.941 195.98,106.503 C204.545,117.067 208.824,131.043 208.824,148.429 C208.824,165.907 203.756,180.426 193.625,191.988 C183.489,203.552 170.773,209.333 155.465,209.333 L150.36,289.356 L129.773,289.356 Z" id="Fill-6" fill="#1A1919"></path>
            <path d="M287.16,87.411 L287.16,154.171 C281.6,130.305 276.629,114.336 272.246,106.263 C267.864,98.19 262.505,94.154 256.168,94.154 C251.215,94.154 247.439,97.019 244.836,102.746 C242.231,108.476 240.933,116.891 240.933,127.999 C240.933,139.716 242.341,149.155 245.17,156.314 C247.998,163.473 253.631,171.176 262.073,179.418 C274.486,191.771 282.511,202.013 286.158,210.147 C289.8,218.279 291.627,227.736 291.627,238.522 C291.627,253.921 288.082,266.534 280.993,276.36 C273.903,286.19 264.92,291.104 254.05,291.104 C248.138,291.104 243.003,288.846 238.656,284.324 C234.311,279.802 230.438,272.631 227.045,262.804 L217.819,281.62 L217.819,205.837 C224.623,237.196 230.554,258.276 235.609,269.077 C240.672,279.878 246.735,285.277 253.801,285.277 C260.865,285.277 266.056,281.581 269.369,274.182 C272.684,266.786 274.341,255.168 274.341,239.326 C274.341,223.925 272.944,212.395 270.164,204.735 C267.379,197.075 262.462,189.81 255.415,182.933 C254.28,181.892 252.538,180.329 250.189,178.241 C239.64,168.948 232.356,160.348 228.351,152.439 C227.039,149.919 225.995,146.444 225.212,142.014 C224.423,137.583 224.035,132.894 224.035,127.941 C224.035,116.561 227.1,107.18 233.236,99.793 C239.373,92.409 247.1,88.715 256.41,88.715 C261.284,88.715 265.552,90.397 269.205,93.753 C272.859,97.11 276.082,102.321 278.868,109.386 L287.16,87.411" id="Fill-7" fill="#1A1919"></path>
            <path d="M97.508,8.531 C98.71,9.096 99.718,11.133 100.909,11.9 C101.575,13.36 101.4,13.297 103.081,13.681 C102.948,15.125 103.354,16.201 104.46,16.789 C106.409,12.3 101.06,12.749 100.625,8.688 C103.194,8.137 105.956,9.566 107.059,11.842 C107.311,12.358 107.369,18.526 109.817,15.148 C111.429,12.92 105.529,11.259 109.843,9.332 C113.103,7.874 113.244,11.39 115.158,11.785 C114.982,10.979 115.426,9.867 115.245,9.054 C119.062,7.829 122,9.426 122.605,12.632 C123.474,17.229 120.824,17.191 124.82,20.639 C126.322,21.936 128.641,23.167 128.059,25.73 C127.544,27.998 125.414,28.739 123.589,28.153 C122.657,27.854 120.223,25.484 120.536,24.299 C120.889,22.942 123.413,22.649 124.773,22.475 C124.46,20.512 121.193,19.399 119.401,19.065 C116.186,18.466 115.676,18.411 114.149,21.093 C111.824,25.178 114.573,30.232 119.795,29.577 C120.583,27.2 128.727,29.001 131.181,28.873 C131.504,31.172 133.894,31.424 136.22,32.479 C139.098,33.781 140.595,33.804 141.153,29.642 C139.637,28.502 137.865,27.632 138.382,25.429 C141.233,25.026 139.015,22.298 138.288,20.714 C139.1,20.303 140.475,20.167 141.495,20.437 C142.148,22.575 142.485,25.672 145.076,26.043 C145.139,25.609 145.144,25.148 145.166,24.716 C147.51,21.882 149.906,23.739 150.505,19.011 C153.619,18.648 154.127,24.71 152.24,26.095 C150.438,27.413 144.987,25.604 145.146,28.865 C145.872,29.233 154.456,28.776 155.463,28.23 C158.173,26.76 155.706,25.388 156.21,23.508 C156.733,21.564 158.207,21.062 159.686,20.444 C154.114,20.301 151.753,19.014 148.584,14.695 C146.064,11.266 143.378,8.755 139.139,7.924 C136.391,7.384 133.938,8.198 131.229,7.93 C129.363,7.748 128.115,6.28 126.704,5.717 C121.182,3.511 122.864,8.706 117.409,7.86 C117.253,7.08 116.729,7.033 116.354,6.58 C116.407,5.755 116.273,4.798 116.242,4.06 C110.639,3.769 109.037,3.325 104.531,0.402 C102.149,1.58 100.091,4.626 97.801,5.458 C96.069,6.086 90.551,4.869 92.135,8.573 C93.931,8.791 95.915,7.785 97.508,8.531 Z M93.852,26.158 C96.028,30.165 97.285,30.402 97.445,35.287 C99.831,35.683 104.46,32.891 104.531,30.35 L103.465,30.35 C104.06,30.114 104.49,29.888 105.192,29.941 C105.312,29.392 105.549,29.081 105.689,28.624 C107.005,29.481 107.926,30.751 108.864,32.085 C117.941,32.426 109.619,26.211 104.939,26.844 C105.137,28.713 103.788,29.469 102.02,28.945 C99.64,28.242 101.573,27.309 101.685,26.722 C101.941,25.388 103.175,24.982 103.107,22.875 C103.051,21.234 103.073,19.699 101.38,18.988 C101.991,23.263 97.097,18.721 95.143,18.98 C96.913,18.566 102.628,15.639 98.576,13.167 C96.411,11.85 90.613,14.688 90.642,17.179 C90.66,18.936 92.267,20.383 92.782,22.083 C93.288,23.745 93.022,24.628 93.852,26.158 Z M70.355,25.366 C75.268,25.341 73.511,21.006 76.036,19.227 C77,18.547 78.37,19.212 79.339,18.707 C80.063,18.332 80.247,17.299 80.871,16.726 C82.32,15.392 83.937,14.12 84.489,12.249 C77.78,12.544 75.425,11.428 71.045,16.718 C67.961,20.444 68.306,23.302 67.963,27.014 C68.049,27.058 68.139,27.096 68.22,27.146 L70.355,25.366 Z M60.301,68.434 C62.138,67.246 63.325,67.993 65.018,65.87 C66.572,63.92 67.047,61.275 68.228,59.192 C69.788,56.44 69.212,57.461 72.466,55.91 C72.514,54.542 72.46,53.125 72.547,51.764 C73.363,51.92 74.707,51.393 75.304,51.456 C74.713,50.406 76.523,45.537 77.735,44.849 C80.704,43.162 80.476,46.47 83.119,45.979 C83.247,43.437 83.469,40.533 82.736,38.174 C82.375,37.02 80.572,33.063 79.665,32.781 C78.896,30.573 76.605,28.42 76.454,26.045 C80.451,24.759 84.717,34.059 85.742,36.401 C86.131,37.294 87.853,43.871 89.881,40.335 C91.604,37.335 86.663,37.322 87.141,34.675 C91.695,32.847 91.345,38.791 95.223,37.772 C96.128,34.118 92.864,30.292 91.021,27.78 C89.605,25.847 90.268,25.09 89.578,22.877 C89.094,21.323 87.452,20.996 87.862,19.019 C88.755,18.593 88.942,17.841 89.543,17.179 C88.414,16.361 87.512,15.201 86.704,13.995 C83.528,15.499 84.359,16.634 83.172,19.315 C82.131,21.667 82.409,20.047 81.017,21.426 C80.207,22.225 79.27,22.744 78.837,23.882 C72.439,24.418 78.02,31.616 79.668,33.93 C78,39.049 70.401,28.511 67.467,32.139 C69.038,34.065 72.714,36.114 73.149,38.13 C71.436,38.263 70.156,38.673 68.505,38.101 C66.814,37.514 66.07,35.103 65.396,34.874 C65.092,34.771 64.753,34.742 64.401,34.767 C65.859,33.556 67.169,31.526 67.509,30.007 C67.75,28.935 67.877,27.949 67.963,27.014 C66.577,26.295 64.625,26.105 63.239,24.969 C62.756,24.575 59.641,32.273 59.952,33.436 C60.363,34.978 61.064,35.648 61.876,35.768 C60.66,36.644 59.761,37.96 59.978,39.196 C57.279,39.361 54.578,38.598 55.13,41.739 C55.141,41.814 57.169,44.576 57.276,44.669 C57.772,45.094 58.537,45.645 58.984,46.021 C59.278,46.267 60.078,45.741 60.396,46.086 C62.608,48.464 60.275,49.425 61.121,52.055 C61.562,53.428 65.411,57.444 60.795,56.638 C60.595,54.746 58.663,54.715 57.944,53.125 C57.571,52.299 58.128,51.153 57.896,50.294 C57.158,47.547 57.496,46.3 54.008,47.864 C54.548,50.147 57.111,53.841 57.19,55.974 C57.399,61.421 52.032,56.659 50.123,59.535 C48.656,61.742 55.539,59.749 56.73,60.61 C59.366,62.518 57.564,63.629 56.495,65.335 C55.888,66.296 54.739,67.579 53.919,68.734 C52.85,68.784 51.746,68.786 50.655,68.772 C50.821,71.122 48.567,76.068 49.415,78.704 C51.178,79.193 54.745,80.336 56.455,79.12 C57.966,78.041 57.727,75.553 57.595,73.36 C59.374,71.569 58.165,69.814 60.301,68.434 Z M49.639,67.521 C49.711,67.979 49.749,68.415 49.763,68.76 C50.056,68.77 50.357,68.767 50.655,68.772 C50.629,68.375 50.54,68.043 50.349,67.822 C50.23,67.681 49.969,67.59 49.639,67.521 Z M46.204,65.604 C44.404,67.436 47.986,67.173 49.639,67.521 C49.341,65.61 48.453,63.313 46.204,65.604 Z M84.543,74.083 C84.524,74.088 84.511,74.098 84.492,74.102 C84.422,73.297 84.34,72.692 84.143,72.213 C84.495,72.545 84.674,73.087 84.543,74.083 Z M156.826,41.039 C157.131,39.308 163.21,38.387 164.937,37.453 C162.756,37.312 160.683,38.562 158.757,38.553 C156.747,38.545 155.156,37.553 153.356,36.954 C153.889,37.169 153.453,37.312 153.945,38.123 C149.088,40.739 148.425,40.102 143.341,38.922 C142.822,45.21 154.545,48.549 153.261,55.222 C147.804,53.88 149.135,58.882 145.89,58.411 C144.937,56.685 142.613,55.315 143.77,53.178 C146.111,53.649 146.991,58.428 149.408,55.426 C151.335,53.032 148.392,50.319 147.152,48.521 C145.533,46.183 145.026,43.971 142.167,42.368 C138.675,40.405 138.218,42.692 136.131,45.629 C135.837,45.207 135.014,44.752 134.744,43.995 C135.401,45.464 134.498,47.046 134.87,48.424 C135.277,49.947 135.871,50.107 137.004,51.353 C138.885,53.424 140.751,55.174 141.629,57.96 C142.872,61.879 140.77,62.234 138.722,59.541 C136.956,57.219 136.522,53.805 135.229,51.487 C134.437,51.477 133.208,51.927 132.602,52.413 C133.726,55.511 140.216,60.024 139.719,63.056 C138.719,62.554 138.548,62.79 137.938,61.738 C133.907,61.586 133.791,54.217 131.297,52.448 C130.768,54.671 128.819,53.28 128.002,55.643 C127.857,56.057 128.765,59.541 128.701,60.556 C125.334,61.584 123.874,58.118 124.056,55.315 C123.6,55.297 123.196,55.279 122.74,55.323 C122.612,60.093 135.169,70.718 131.229,73.781 L130.516,73.424 C130.45,73.398 130.388,73.377 130.329,73.353 C129.158,72.089 128.185,70.654 127.006,69.467 C126.25,67.46 124.33,66.476 123.397,64.345 C122.486,62.262 122.561,60.09 120.542,58.465 C118.957,57.184 116.535,56.234 114.604,57.753 C111.699,60.04 114.653,60.547 116.359,62.38 C117.581,63.697 119.684,65.923 120.568,67.451 C121.488,69.039 122.646,73.013 119.103,71.311 C115.588,69.631 116.478,61.553 111.712,61.384 C111.51,62.389 111.041,63.339 111.269,64.471 C110.476,64.268 109.298,64.766 108.501,64.577 C109.098,67.465 113.93,70.293 113.383,73.37 L113.357,73.37 C113.31,73.141 113.252,72.902 113.154,72.625 C112.539,70.95 110.366,69.713 109.181,68.439 C108.185,67.372 106.279,63.785 104.6,64.577 C103.305,65.189 103.758,69.139 103.879,70.237 C104.179,72.949 108.994,79.331 102.454,77.999 C101.072,75.271 99.313,73.431 97.749,71.031 C96.859,69.666 96.859,69.514 96.692,68.165 C96.582,67.276 99.504,64.359 95.659,65.272 C96.028,66.198 95.807,67.411 95.935,68.388 C92.476,67.763 93.514,70.988 96.645,70.274 C96.822,71.1 97.003,72.639 97.02,73.353 C96.375,73.533 95.268,73.545 94.626,73.362 C94.281,72.336 93.598,72.132 93.443,70.986 C91.358,71.147 89.554,67.329 90.235,65.644 C89.753,65.425 88.7,65.256 88.208,65.281 C87.922,67.368 89.814,68.081 89.517,70.157 C88.358,70.592 87.164,70.978 86.02,71.289 L85.664,71.289 C85.244,69.595 85.628,67.656 84.593,66.404 C83.657,65.271 81.265,64.191 80.058,65.309 C78.72,66.546 79.585,69.15 80.498,70.404 C78.273,69.974 76.929,69.814 74.627,68.406 C73.693,69.279 73.139,69.477 73.133,70.897 C69.831,67.859 59.641,75.652 58.592,79.475 C55.813,89.603 70.542,85.019 64.305,80.188 C66.13,80.033 66.58,78.401 66.493,76.68 C72.01,75.043 67.877,86.932 74.93,84.761 C75.568,80.695 72.238,78.058 72.547,74.548 C77.633,73.228 72.822,86.761 80.27,85.581 C80.392,90.228 85.833,91.041 83.583,87.005 C83.946,87.017 84.263,87.083 84.552,87.18 C85.044,87.699 85.665,88.123 86.333,88.425 C87.339,89.399 88.27,90.356 90.629,89.38 C90.479,88.938 90.3,88.534 90.125,88.121 C90.593,87.229 90.024,85.771 88.313,84.617 C88.267,84.537 88.222,84.455 88.173,84.373 C90.225,81.315 91.2,87.16 91.412,88.677 C91.965,88.835 92.887,88.832 93.442,88.677 C93.766,87.307 93.407,85.969 92.552,84.878 C94.104,84.522 99.922,89.755 98.88,84.514 C100.158,84.388 101.433,84.993 102.343,85.48 C102.149,84.894 102.263,84.022 102.065,83.443 C103.572,83.289 104.748,83.959 104.885,85.421 C104.737,84.798 105.002,84.054 104.933,83.443 C105.622,83.238 107.007,83.233 107.69,83.453 C107.711,84.142 108.254,84.772 108.224,85.474 C118.727,86.1 111.263,83.401 112.009,78.071 C112.104,77.405 112.293,76.9 112.504,76.469 C112.869,76.433 113.244,76.387 113.654,76.328 C113.656,84.401 120.847,81.014 118.963,74.772 C119.83,74.387 120.7,74.393 121.557,74.91 C121.596,76.814 122.456,78.46 124.425,78.346 C124.58,78.28 125.691,77.556 126.183,77.279 C126.591,74.934 125.458,73.567 124.864,71.621 C126.276,71.17 127.527,73.474 128.748,75.006 C128.88,75.343 129.031,75.665 129.174,75.87 C129.253,75.826 129.34,75.797 129.425,75.757 C130.242,76.516 131.052,76.606 131.9,74.99 C132.363,74.909 132.831,74.841 133.312,74.794 C133.456,72.026 131.524,65.534 135.802,65.648 C135.927,67.105 135.734,72.902 138.809,69.25 C140.262,67.523 137.001,63.024 141.498,64.223 C141.615,65.378 142.047,66.214 142.316,67.321 C146.268,67.487 150.294,66.347 152.41,62.655 C153.356,61.012 152.908,58.969 153.915,57.311 C154.25,56.756 155.502,56.766 156.139,55.97 C156.941,54.963 157.428,54.435 157.523,53.186 C155.094,53.733 153.989,51.714 154.709,49.833 C155.311,48.25 158.039,49.797 157.532,46.795 C156.741,46.702 155.891,45.977 155.1,45.926 C155.322,45.668 155.587,45.224 155.824,44.947 C154.536,44.347 153.383,43.38 153.709,41.794 C158.656,40.305 157.081,48.825 160.383,47.09 C160.083,46.25 156.866,40.829 156.826,41.039 Z M153.356,36.954 C153.209,36.896 153.013,36.835 152.688,36.751 C152.915,36.811 153.134,36.881 153.356,36.954 Z" id="Fill-8" fill="#D0232B"></path>
        </g>
    </g>
</svg>