<?xml version="1.0" encoding="UTF-8"?>
<svg width="32px" height="32px" viewBox="0 0 32 32" version="1.1" xmlns="http://www.w3.org/2000/svg" xmlns:xlink="http://www.w3.org/1999/xlink">
    <!-- Generator: Sketch 49 (51002) - http://www.bohemiancoding.com/sketch -->
    <title>drinkspy-icon</title>
    <desc>Created with Sketch.</desc>
    <defs>
        <polygon id="path-1" points="10.1726918 3.64970314 17.2773091 3.64970314 17.2773091 23.3079227 10.1726918 23.3079227"></polygon>
    </defs>
    <g id="drinkspy-icon" stroke="none" stroke-width="1" fill="none" fill-rule="evenodd">
        <g id="symbol" transform="translate(0.000000, 2.000000)">
            <polyline id="Fill-1" fill="#CF1717" points="13.7403941 12.4519893 14.3747164 13.7376558 15.7934492 13.9421398 14.7671067 14.9425796 15.0071885 16.3570199 13.7403941 15.6897641 12.4724895 16.3570199 12.7140515 14.9425796 11.6871169 13.9421398 13.1064418 13.7376558 13.7403941 12.4519893"></polyline>
            <path d="M22.1171344,22.1078834 C19.8443496,24.3805942 16.8277106,25.6203758 13.6458119,25.6203758 C10.4639871,25.6203758 7.44742221,24.3805942 5.17456339,22.1078834 C0.505104408,17.4383504 0.505104408,9.83491939 5.17456339,5.16531239 C7.44742221,2.89260158 10.4639871,1.65296805 13.6458119,1.65296805 C16.8277106,1.65296805 19.8443496,2.89260158 22.1171344,5.16531239 C26.7866674,9.83491939 26.7866674,17.4383504 22.1171344,22.1078834 Z M31.7116759,23.143625 L27.1697326,20.4256082 C27.0237149,20.3233292 26.8375109,20.3561887 26.7663892,20.4967298 C26.6951935,20.637197 26.5089895,20.6699825 26.3630457,20.5678515 L25.6234101,20.1275041 C28.4341588,14.9630798 27.6510805,8.38525123 23.274101,4.00834577 C20.6295001,1.32237444 17.1170078,0 13.6458119,0 C10.17469,0 6.66227164,1.32237444 4.01759676,4.00834577 C-1.31312345,9.33899197 -1.31312345,17.9755743 4.01759676,23.3061465 C6.66227164,25.9508954 10.17469,27.2732698 13.6458119,27.2732698 C17.1170078,27.2732698 20.6295001,25.9508954 23.274101,23.264924 C23.8749717,22.6639793 24.4079031,22.0215901 24.8732653,21.3470814 L25.6548635,21.8122956 C25.8008072,21.9145746 25.8646761,22.095228 25.7879298,22.2046858 C25.7168081,22.345227 25.780603,22.5259544 25.9210701,22.5971501 L30.4631614,25.3151669 C30.6089571,25.4173719 30.7951612,25.3845123 30.8664308,25.2439712 L31.8082563,23.5104085 C31.9214885,23.4264094 31.852217,23.2148206 31.7116759,23.143625 Z" id="Fill-2" fill="#000000"></path>
            <mask id="mask-2" fill="white">
                <use xlink:href="#path-1"></use>
            </mask>
            <g id="Clip-4"></g>
            <path d="M16.3929878,21.2825465 C16.3929878,22.1146181 16.0960678,22.4238974 15.2973738,22.4238974 L12.152553,22.4238974 C11.353785,22.4238974 11.056939,22.1146181 11.056939,21.2825465 L11.056939,13.7352135 C11.056939,13.0880878 11.9734537,12.1826743 12.551308,11.7640112 C12.6660944,11.6806042 12.7344037,11.5472418 12.7344037,11.4055906 L12.7344037,6.69742543 C12.7384001,6.69757344 12.7423226,6.69786947 12.746319,6.69786947 L14.7153011,6.69786947 L14.7153011,11.4053686 C14.7153011,11.5474639 14.7834624,11.6808262 14.8986188,11.7640112 C15.2863466,12.0437613 16.3929878,13.006753 16.3929878,13.7349915 L16.3929878,21.2825465 Z M14.7153011,4.53395038 L14.7153011,6.18640038 L12.746319,6.18640038 C12.7423226,6.18640038 12.7384001,6.18669641 12.7344037,6.18684443 L12.7344037,4.53395038 L14.7153011,4.53395038 Z M15.5996223,11.186749 L15.5996223,4.09190077 C15.5996223,3.84782248 15.401503,3.64970314 15.1574987,3.64970314 L12.2922061,3.64970314 C12.0482018,3.64970314 11.8501565,3.84782248 11.8501565,4.09190077 L11.8501565,11.186749 C11.3655523,11.5713684 10.1726918,12.6307185 10.1726918,13.7349915 L10.1726918,21.2823245 C10.1726918,22.9564588 11.2494338,23.3079227 12.152553,23.3079227 L15.2973738,23.3079227 C16.2006411,23.3079227 17.2773091,22.9564588 17.2773091,21.2823245 L17.2773091,13.7349915 C17.2773091,12.6307185 16.0841525,11.5713684 15.5996223,11.186749 Z" id="Fill-3" fill="#000000" mask="url(#mask-2)"></path>
        </g>
    </g>
</svg>